<!--?xml version="1.0" encoding="utf-8"?-->
<!-- Generator: Adobe Illustrator 22.1.0, SVG Export Plug-In . SVG Version: 6.00 Build 0)  -->
<svg version="1.1" id="_x33_" xmlns="http://www.w3.org/2000/svg" xmlns:xlink="http://www.w3.org/1999/xlink" x="0px" y="0px" viewBox="0 0 800 129.4" style="width: 781px;" xml:space="preserve">
<style type="text/css">
	.stblack{fill:#000000;}
</style>
<g>
	<path class="stblack" d="M20.2,12.6c8.2,29,35.9,46.6,64.1,52.3c29.9,6,61.5,2.6,91.6-0.1c29.3-2.7,58.4-6.2,87.8-7.8c24.8-1.3,51-2.1,75.2,4.6
		c12.6,3.5,24.3,9.8,32.8,20.1c9.3,11.3,11.1,25.2,10.2,39.3c-0.2,3.7,5.5,6.6,7.7,4.5c42.2-33.3,96.1-35.2,147.5-37.4
		c30.8-1.3,61.7-3.2,92.4-6.4c15.9-1.7,31.7-3.7,47.5-6.3c14.5-2.4,29.4-4.4,43.2-9.9c13.3-5.4,27.3-12.2,38.9-20.7
		C770.3,36.4,779,24.1,780,9.9c0.1-2.1-1.4-4-2.9-5.2c-0.6-0.4-4-2.6-4.2-0.6c-2,28-31.3,42.2-53.9,52.2c-13.5,6-27.7,8.4-42.2,10.9
		c-15.2,2.6-30.5,4.7-45.8,6.4c-31.3,3.5-62.7,5.4-94.1,6.9c-24.6,1.2-49.3,1.6-73.7,5.4c-25.9,4.1-51,12.4-72.6,27.2
		c-0.3-8.4-1.8-16.6-5.6-24.3c-5.8-11.9-16.2-21.5-27.8-27.8c-20-10.9-44.6-12.6-66.9-12.8C232,47.6,174.3,60.3,116,60
		c-33.8-0.2-76.9-9.6-87.5-47C27.3,8.6,18.6,7,20.2,12.6z"></path>
</g>
</svg>
