<!--?xml version="1.0" encoding="utf-8"?-->
<!-- Generator: Adobe Illustrator 22.1.0, SVG Export Plug-In . SVG Version: 6.00 Build 0)  -->
<svg version="1.1" id="_x33_" xmlns="http://www.w3.org/2000/svg" xmlns:xlink="http://www.w3.org/1999/xlink" x="0px" y="0px" viewBox="0 0 800 747.2" style="width: 977px;" xml:space="preserve">
<style type="text/css">
	.stblack{fill:#000000;}
</style>
<g>
	<path class="stblack" d="M28.2,386.3c0-0.4,0-0.8,0-1.1c0,0.7,0,1.4,0,2C28.2,386.9,28.2,386.6,28.2,386.3z"></path>
	<path class="stblack" d="M28.3,389.9c0,0.1,0,0.2,0,0.3C28.4,390.3,28.3,390.1,28.3,389.9z"></path>
	<path class="stblack" d="M21.2,364.1c-0.1,0.5-0.1,1.2-0.2,1.9c0-0.3,0.1-0.6,0.1-0.8C21.1,364.9,21.1,364.5,21.2,364.1z"></path>
	<path class="stblack" d="M28.3,387.5c0-0.1,0-0.2,0-0.4c0,0.1,0,0.2,0,0.2C28.2,387.4,28.3,387.4,28.3,387.5z"></path>
	<path class="stblack" d="M20.1,377.2C20.1,377.2,20.1,377.2,20.1,377.2C20.1,377.2,20.1,377.2,20.1,377.2C20.1,377.2,20.1,377.2,20.1,377.2z"></path>
	<path class="stblack" d="M20.2,375.2c0,0.5,0,0.9,0,1.4c0-0.8,0.1-1.6,0.1-2.4C20.3,374.5,20.2,374.8,20.2,375.2z"></path>
	<path class="stblack" d="M20,381.3c0-0.1,0-0.2,0-0.3C20,381,20,381.2,20,381.3z"></path>
	<path class="stblack" d="M28.3,377.5c0,0,0,1.3-0.1,3.7c0,0.3,0,0.5,0,0.8C28.3,379.6,28.3,377.5,28.3,377.5z"></path>
	<path class="stblack" d="M20,380.6C20,380.6,20,380.7,20,380.6c0,0,0-0.1,0-0.2C20,380.4,20,380.5,20,380.6z"></path>
	<path class="stblack" d="M28.2,385.2c0-0.2,0-0.4,0-0.6c0,0.1,0,0.2,0,0.3C28.2,385,28.2,385.1,28.2,385.2z"></path>
	<path class="stblack" d="M20,381.7c0-0.2,0-0.3,0-0.5C20,383.3,20,384,20,381.7z"></path>
	<path class="stblack" d="M144.6,531.9c-2.1-1.2-4.5-2.6-7.2-4.1c-1.3-0.7-2.7-1.5-4.2-2.2c-1.5-0.7-3-1.5-4.5-2.3c-12.5-6.3-28.1-14.5-42.1-24.9
		c-3.4-2.7-7.1-5.2-10.2-8.2c-1.6-1.4-3.3-2.8-4.9-4.2c-1.6-1.5-3-3-4.5-4.5c-1.5-1.5-3-2.9-4.3-4.5c-1.3-1.6-2.6-3.1-3.9-4.6
		c-2.7-2.9-4.8-6.1-6.9-9.1c-8.3-11.9-12.9-22.4-14.4-26.6c-1.5-4.6-3.1-8.9-4-13.2c-1-4.2-2.1-8.1-2.6-11.8
		c-0.6-3.7-1.2-7.1-1.6-10.2c-0.3-3.1-0.6-6-0.7-8.5c-0.1-1-0.1-1.9-0.2-2.8c0,0,0-0.3,0-0.8c0,0.1,0,0.2,0,0.3c0,0.1,0,0.1,0,0.2
		c0-0.6-0.1-1.2-0.1-1.8c0-0.2,0-0.4,0-0.6c0,0.2,0,0.3,0,0.5c0-0.2,0-0.4,0-0.6c0-0.5,0-1.1,0-1.7c0-0.2,0-0.5,0-0.7
		c0-0.7,0-1.4,0-2c0,0.6,0,1.2,0,1.8c0-0.8,0-1.6,0-2.5c0,0.2,0,0.4,0,0.6c0-0.4,0-0.9,0-1.3c0-0.1,0-0.1,0-0.2
		c0-5.1,0.4-12.8,2.1-23.7c3.8-23.2,12.6-44,23.3-60.8c10.7-16.9,23.2-30,34.6-39.6c2.8-2.5,5.7-4.6,8.3-6.7c2.7-2,5.3-3.9,7.8-5.6
		c4.9-3.5,9.3-6.2,13-8.6c7.3-4.8,11.5-8.2,11.2-11.5c-0.1-1-1-1.4-2.6-1.4c-0.8,0-1.9,0.2-3.1,0.4c-1.2,0.2-2.6,0.6-4.2,1.2
		c-6.4,2.1-15.7,6.7-26.6,14.6C81,247.5,68.6,259,56.9,274.8c-11.7,15.8-22.7,36-29.9,60.5c-3.5,12.2-5,21.7-5.8,28.9
		c0-0.2,0-0.3,0.1-0.5c0,0.2-0.1,0.5-0.1,0.9c0,0.2,0,0.4-0.1,0.6c0,0.3-0.1,0.6-0.1,0.9c-0.1,0.5-0.1,1-0.1,1.5
		c0.1-0.6,0.1-1.1,0.2-1.6c-0.1,0.7-0.2,1.5-0.2,2.4c0,0.2,0,0.4-0.1,0.6c-0.1,0.6-0.1,1.3-0.2,2c0-0.3,0.1-0.7,0.1-1
		c-0.1,1.1-0.2,2.1-0.2,3.1c-0.1,1.2-0.1,2.6-0.2,4.1c0,0.2,0,0.4,0,0.6c0,1-0.1,2-0.1,3c0,0.4,0,0.7,0,1c0,1.1,0,2.1,0,3.1
		c0,2.3,0,4.5,0.2,6.4c0,0.3,0,0.7,0.1,1c0,0.2,0.1,0.8,0.1,1.9c0,0.1,0,0.2,0,0.3c0,0,0-0.1,0-0.1c0,0.3,0,0.6,0,1
		c0,0.2,0,0.4,0,0.5c0,0.2,0,0.4,0,0.6c0,0.2,0,0.4,0.1,0.7c0.1,0.6,0.1,1.2,0.2,1.9c0,0.4,0.1,0.8,0.1,1.1c0-0.2,0-0.3,0-0.5
		c0,0.3,0.1,0.7,0.1,1.1c0,0.4,0.1,0.8,0.1,1.2c0.1,0.5,0.1,1.1,0.2,1.6c0-0.2-0.1-0.3-0.1-0.5c0,0.2,0,0.3,0,0.5
		c0.1,0.5,0.2,1,0.2,1.4c0.3,2.1,0.7,4.4,1.1,7.2c1.4,8.5,3.9,20.3,10.2,35.5c0.7,1.7,1.6,3.8,2.6,6.3c1.2,2.4,2.5,5.1,4,8
		c1.4,3,3.4,6.1,5.4,9.4c1,1.6,2,3.4,3.2,5.1c1.2,1.7,2.5,3.4,3.7,5.1c5,7,11.4,13.8,18.3,20.3c0.8,0.9,1.7,1.6,2.7,2.4l2.8,2.3
		c1.8,1.5,3.7,3.1,5.5,4.6c1.9,1.4,3.9,2.8,5.8,4.1c2,1.3,3.8,2.8,5.9,4c15.8,10,31.9,16.7,43.5,19.9c2.8,0.9,5.5,1.4,7.7,1.8
		c2.2,0.4,4.1,0.6,5.6,0.7c2.9,0.1,4.2-0.6,3.4-2.3C151.7,536.9,148.8,534.5,144.6,531.9z M20.6,397.5
		C20.6,397.5,20.6,397.5,20.6,397.5c0,0,0,0.1,0,0.1C20.6,397.6,20.6,397.5,20.6,397.5z M21.3,363.1
		C21.3,362.9,21.3,362.9,21.3,363.1L21.3,363.1z M21.4,404.5c0-0.1,0-0.1,0-0.2c0,0.2,0.1,0.3,0.1,0.5
		C21.4,404.7,21.4,404.6,21.4,404.5z M21.7,406.5c0.1,0.5,0.1,0.9,0.2,1C21.8,407.3,21.8,407,21.7,406.5z"></path>
	<path class="stblack" d="M20.2,392.2c0-0.4,0,0.5,0.1,2.1c0-0.1,0-0.2,0-0.2C20.3,393.5,20.3,392.8,20.2,392.2z"></path>
	<path class="stblack" d="M20.5,371c-0.1,1-0.2,2.1-0.2,3.1c0-0.4,0.1-0.7,0.1-1.1C20.4,372.3,20.5,371.6,20.5,371z"></path>
	<path class="stblack" d="M21,401.6c0-0.3-0.1-0.5-0.1-0.8c0-0.1,0-0.2,0-0.3c0-0.1,0-0.2,0-0.3c0.1,1,0.2,2,0.3,2.9c0-0.4-0.1-0.7-0.1-1.1
		C21,401.8,21,401.7,21,401.6z"></path>
	<path class="stblack" d="M20.2,376.6c0,0.2,0,0.4,0,0.6c0,0,0,0,0,0C20.2,377,20.2,376.8,20.2,376.6z"></path>
	<path class="stblack" d="M20,380.7c0,0.1,0,0.2,0,0.2C20,380.9,20,380.8,20,380.7C20,380.7,20,380.7,20,380.7z"></path>
	<path class="stblack" d="M20.1,377.3c0,0.1,0,0.2,0,0.3c0,1-0.1,2-0.1,2.8c0-0.7,0-1.6,0.1-2.6C20.1,377.6,20.1,377.4,20.1,377.3z"></path>
	<path class="stblack" d="M383.2,27.4c0.1,0,0.2,0,0.2,0S383.3,27.4,383.2,27.4z"></path>
	<path class="stblack" d="M377.6,19.5c-1.7,0.1-2.8,0.2-3,0.2c0.9-0.1,1.9-0.1,2.8-0.2C377.5,19.5,377.6,19.5,377.6,19.5z"></path>
	<path class="stblack" d="M365.7,28.6c0.1,0,0.3,0,0.5-0.1c-0.2,0-0.4,0-0.6,0.1C364.6,28.7,364.8,28.7,365.7,28.6z"></path>
	<path class="stblack" d="M343.5,23.1c-0.3,0-0.6,0.1-0.8,0.1C342.9,23.2,343.2,23.1,343.5,23.1C343.4,23.1,343.5,23.1,343.5,23.1z"></path>
	<path class="stblack" d="M372.9,28c-0.1,0-0.2,0-0.3,0c1.1-0.1,2.2-0.2,3.2-0.2c0.2,0,0.5,0,0.7-0.1c-0.1,0-0.1,0-0.2,0
		C375.3,27.8,374.2,27.9,372.9,28z"></path>
	<path class="stblack" d="M354.2,21.6c-1.7,0.2-3.5,0.4-5.2,0.7c0.3,0,0.5-0.1,0.8-0.1C351.5,22,352.9,21.8,354.2,21.6z"></path>
	<path class="stblack" d="M382.9,19.2c2.3-0.1,5.1-0.2,8.5-0.3C388.5,18.9,385.5,19,382.9,19.2z"></path>
	<path class="stblack" d="M382,27.4c-0.2,0-0.3,0-0.5,0c0.9,0,1.5-0.1,1.8-0.1C383,27.4,382.6,27.4,382,27.4z"></path>
	<path class="stblack" d="M391.4,18.9c0.2,0,0.5,0,0.7,0C391.8,18.9,391.6,18.9,391.4,18.9z"></path>
	<path class="stblack" d="M392,18.8c0.3,0,0.7,0,1.1,0C392.7,18.8,392.4,18.8,392,18.8z"></path>
	<path class="stblack" d="M200.2,103.2c8.8-9.1,18.4-17.6,28.2-24.9c9.8-7.3,19.7-13.6,28.9-18.6C275.8,49.6,291.3,44,297.5,42
		c13.5-4.2,25.7-7,36.3-8.9c2.7-0.5,5.2-1,7.7-1.3c2.5-0.4,4.8-0.8,7.1-1.1c4.5-0.5,8.6-1.2,12.3-1.5c1.6-0.2,3.1-0.3,4.6-0.5
		c0.2,0,0.5,0,0.8-0.1c-0.1,0-0.1,0-0.2,0c2.4-0.2,4.5-0.4,6.4-0.5c0,0,0,0,0.1,0c0,0,0,0-0.1,0c0.1,0,0.2,0,0.3,0
		c1-0.1,2.2-0.2,3.5-0.2c0.2,0,0.4,0,0.6,0c-0.1,0-0.2,0-0.3,0c1.4-0.1,2.9-0.2,4.6-0.3c0.1,0,0.2,0,0.3,0c-0.1,0-0.2,0-0.2,0
		c1.6-0.1,3.4-0.2,5.3-0.2c6.7-0.3,15.2-0.5,26-0.2c33.9,0.7,65.8,6.5,92.8,16.5c27.1,9.9,49,24.1,65.2,38.3
		c8.1,7.1,14.9,14.1,20.5,20.7c2.9,3.2,5.3,6.4,7.7,9.3c2.2,3,4.4,5.7,6.2,8.2c7.4,10.1,11.7,16.3,15.1,16.1c1,0,1.3-1.2,0.9-3.5
		c-0.4-2.3-1.4-5.7-3.5-10c-4-8.7-11.5-21.4-24.7-35.4c-13.2-13.9-32-29.2-57.2-41.5c-25.2-12.3-56.6-21.3-92.4-25
		c-17-1.7-30.2-2-40.2-2c-0.6,0-2.5,0-6.3,0.1c-1.2,0-2.4,0-3.4,0.1c1.1,0,2.2,0,3.2-0.1c-3.1,0.1-7.5,0.2-13.3,0.4
		c-0.2,0-0.3,0-0.5,0c0.1,0,0.2,0,0.3,0c-0.2,0-0.5,0-0.7,0c-1,0-2,0.1-2.9,0.1c-0.3,0-0.7,0-1,0c-0.2,0-0.4,0-0.6,0
		c0.4,0,0.9-0.1,1.4-0.1c-0.5,0-1.1,0.1-1.6,0.1c-2.1,0.2-3,0.2-2.8,0.2c-0.8,0.1-1.6,0.1-2.4,0.2c-3.3,0.2-6.3,0.5-8.9,0.8
		c-1.7,0.1-3.2,0.3-4.6,0.5c-0.3,0-0.7,0.1-1,0.1c-1,0.1-2.1,0.3-3.5,0.4c0,0,0.1,0,0.1,0c-1.4,0.2-2.8,0.4-4,0.5
		c-0.2,0-0.3,0-0.5,0.1c-1.7,0.2-3.6,0.5-5.7,0.8c1.4-0.2,3.1-0.5,4.9-0.7c-2.4,0.3-4.2,0.6-5.6,0.8c0.1,0,0.2,0,0.3,0
		c-0.1,0-0.2,0-0.4,0.1c-0.1,0-0.2,0-0.3,0c-1.6,0.3-2.4,0.4-2.7,0.4c-0.4,0.1,0.6-0.1,2.2-0.4c-2.6,0.4-5.4,0.9-8.6,1.4
		c-12,2.2-28.7,5.7-50.5,13.4c-9.8,3.5-28.8,10.5-49.7,22.8c-21,12.2-43.1,30.6-59.6,51.6c-8.3,10.4-15.3,21.3-20.6,31.8
		c-2.5,5.3-5,10.3-6.7,15.2c-0.9,2.4-1.9,4.7-2.5,7c-0.7,2.3-1.3,4.5-1.9,6.6c-0.6,2.1-1,4.1-1.4,6c-0.4,1.9-0.7,3.6-1,5.2
		c-0.6,3.2-0.6,6-0.7,8.1c0,4.2,0.7,5.7,2.4,4.2c1.1-1,2.3-2.7,3.5-4.9c0.6-1.1,1.2-2.3,1.8-3.7c0.7-1.3,1.4-2.8,2.1-4.4
		c0.7-1.6,1.4-3.3,2.2-5.1c0.8-1.8,1.7-3.6,2.6-5.6c1.6-4,3.9-8.1,6-12.6c4.6-8.9,10.1-18.6,16.9-28.4
		C183.4,122.1,191.4,112.3,200.2,103.2z M402.1,18.7c0,0,0.1,0,0.1,0c-0.8,0-1.7,0-2.5,0C400.7,18.7,401.5,18.7,402.1,18.7z
		 M380.2,27.5c0.1,0,0.3,0,0.4,0C380.4,27.5,380.3,27.5,380.2,27.5z M377.9,27.7c0.7-0.1,1.3-0.1,1.9-0.1
		C379.2,27.6,378.5,27.6,377.9,27.7z M382,19.2c-1,0-1.8,0.1-2.6,0.1C380.2,19.3,381.1,19.3,382,19.2z M358.9,21.1
		C362.4,20.7,363.7,20.6,358.9,21.1L358.9,21.1z"></path>
	<path class="stblack" d="M778.5,296.2c-0.1-0.8-0.2-1.6-0.3-2.4c-0.2-0.8-0.3-1.6-0.5-2.4c-0.3-1.6-0.7-3.2-1.1-4.8c-0.8-3.2-1.5-6.4-2.4-9.7
		c-3.5-13.2-8.4-27.2-14.8-41c-6.3-13.8-14.3-27.3-23.4-39.3c-9.2-12-19.5-22.6-30.2-30.7c-10.6-8.2-21.4-14-30.5-17.7
		c-9.2-3.7-16.8-5.2-21.5-5.7c-4.7-0.4-6.5,0.3-4.8,2.1c1.1,1.2,3,2.5,5.4,3.9c2.4,1.5,5.4,3,8.8,4.9c6.8,3.7,15.4,8.4,24.5,15
		c9.1,6.5,18.6,14.7,27.6,24.7c9,9.9,17.4,21.4,24.7,33.7c7.3,12.3,13.4,25.5,18.4,38.4c2.5,6.5,4.6,12.9,6.5,19.2
		c0.9,3.1,1.8,6.2,2.6,9.2c0.2,0.7,0.4,1.5,0.6,2.2c0.1,0.7,0.3,1.5,0.4,2.2c0.3,1.5,0.5,2.9,0.7,4.3c1.8,11.6,2.1,22.2,1.6,30.6
		c0,2.1-0.2,4.1-0.4,5.9c-0.2,1.8-0.3,3.5-0.5,5.1c-0.5,3.1-0.8,5.6-1.2,7.4c-1.6,7.7-3.6,14.9-5.9,21.5c-2.4,6.6-4.8,12.6-7.6,18.1
		c-5.3,10.9-10.9,19.6-15.6,26.4c-1.3,1.9-2.6,3.6-3.8,5.2c-0.6,0.7-1.3,1.7-2.3,3c0.2-0.3,0.4-0.5,0.6-0.8c-0.4,0.5-0.7,0.9-1,1.3
		c-0.1,0.1-0.2,0.2-0.2,0.3c-0.2,0.2-0.3,0.4-0.5,0.6c-0.2,0.3-0.5,0.6-0.7,0.9c0.1-0.2,0.2-0.3,0.4-0.5c-0.4,0.5-0.8,1-1.2,1.4
		c-0.3,0.4-0.6,0.7-1,1.1c-0.6,0.8-1.3,1.5-1.8,2.2c0,0,0,0,0,0c-0.1,0.1-0.1,0.2-0.2,0.2c-0.1,0.1-0.2,0.2-0.2,0.3
		c0.1-0.1,0.2-0.2,0.3-0.3c-2.3,2.6-3.7,4.1-4.1,4.6c-0.8,0.9-1.6,1.8-2.5,2.7c-5.1,5.5-12,12.2-21.4,19.8
		c-14.8,12-30.8,21.7-47,29.2c-2,0.9-4.1,1.8-6.1,2.7l-2.1,0.9c-0.4,0.1-0.7,0.5-1,0.8l-0.9,0.8l-2.4,2.3c-1.6,1.6-3.2,3.1-4.7,4.6
		l-2.6,2.5c-0.6,0.6-1.4,1.1-1.5,2l-0.7,2.2c-0.7,2-1.2,4-2,5.8c-0.8,1.9-1.6,3.7-2.5,5.6c-1,1.8-1.9,3.5-2.9,5.2
		c-1,1.7-2.2,3.3-3.3,4.9c-9.2,12.7-21.8,21.6-34.6,27.4c-6.4,2.9-12.9,5.2-19.3,7c-0.8,0.2-1.6,0.5-2.4,0.7
		c-0.8,0.2-1.6,0.4-2.4,0.6c-1.6,0.4-3.1,0.8-4.7,1.1c-3.1,0.6-6.2,1.3-9.2,1.7c-12,2-23.1,2.9-33,3.3c-9.8,0.4-18.4,0.4-25.5,0.3
		c-14.3-0.1-22.7-0.2-24.8,2.5c-1.3,1.5,3.7,4.1,14.2,6.1c5.3,1,12,1.8,20.1,2.2c8.1,0.4,17.5,0.5,28.3-0.3
		c10.7-0.8,22.8-2.3,35.8-5.8c6.5-1.6,13.3-3.8,20.1-6.7c6.9-2.8,13.9-6.4,20.6-10.9c6.8-4.5,13.3-10.1,19.1-16.8
		c5.8-6.7,10.6-14.7,14-23.5c1-2.2,1.6-4.4,2.3-6.7l0.5-1.6l0.1-0.3l1.6-1.7c1.6-1.6,3.2-3.3,4.9-4.9c0.8-0.8,1.6-1.7,2.5-2.5
		l0.6-0.6l0.8-0.4c8.9-3.9,17.7-8.4,26.5-13.7c9.6-5.7,17.5-11.3,24.1-16.5c5.3-4.1,9.7-7.9,13.5-11.3c0,0-0.1,0.1-0.1,0.1
		c-1.2,1.1-1.2,1.1,0.7-0.6c0.2-0.2,0.5-0.4,0.7-0.6c1.1-1,2.7-2.5,4.8-4.5c-0.4,0.4-0.8,0.8-1.2,1.2c4.1-3.9,7.3-7.2,9.7-9.8
		c-1.8,2-3.9,4.1-5.9,6.1c1.9-1.9,4.1-4.2,6.6-6.9c-0.1,0.2-0.3,0.3-0.4,0.5c0.2-0.2,0.3-0.4,0.5-0.5c0,0,0.1-0.1,0.1-0.1
		c0.1-0.1,0.2-0.2,0.3-0.3c-0.1,0.1-0.1,0.1-0.2,0.2c0.1-0.1,0.2-0.2,0.3-0.4c1.9-2.2,3.8-4.2,5.4-6.2c-0.2,0.2-0.4,0.4-0.6,0.7
		c0.3-0.3,0.5-0.6,0.7-0.8c6.9-8.2,11.6-14.9,14.9-19.9c-0.2,0.3-0.5,0.7-0.7,1c-0.3,0.5-0.6,1-1,1.4c1-1.6,2.3-3.5,3.8-5.8
		c1.5-2.4,2.6-4.4,3.5-5.8c-0.7,1.2-1.5,2.6-2.4,4.1c0.9-1.5,1.9-3.1,2.9-4.9c0,0,0.1-0.1,0.1-0.1c0.1-0.2,0.2-0.4,0.3-0.6
		c1.4-2.6,3-5.4,4.6-8.7c3.2-6.2,6.5-13.9,9.6-23.3c3.1-9.4,5.9-20.6,7.4-33.8c0.4-3,0.6-6.6,1-10.9c0.1-4.3,0.4-9.1,0.1-14.5
		C779.8,308.3,779.3,302.5,778.5,296.2z M725.4,435c0-0.1,0.1-0.1,0.1-0.2c-0.5,0.6-1.1,1.2-1.6,1.8
		C724.2,436.3,724.7,435.7,725.4,435z M721.8,450.6c-0.2,0.2-0.5,0.5-0.7,0.7C721.4,451.1,721.6,450.8,721.8,450.6z M736.1,421.9
		c0.1-0.1,0.2-0.3,0.3-0.4C737.1,420.6,737.2,420.6,736.1,421.9z M747,420.9C744.7,424.2,743.8,425.3,747,420.9L747,420.9z
		 M758,403.3c0.1-0.2,0.2-0.4,0.3-0.5C758.4,402.6,758.3,402.8,758,403.3z"></path>
	<path class="stblack" d="M729.2,443c-0.1,0.1-0.2,0.2-0.3,0.3C729,443.2,729.1,443.1,729.2,443z"></path>
	<path class="stblack" d="M731.7,440.2c-0.4,0.5-0.9,1-1.3,1.5C730.9,441.1,731.3,440.6,731.7,440.2z"></path>
	<path class="stblack" d="M733.4,438.3C733.4,438.3,733.4,438.3,733.4,438.3c-0.1,0.1-0.2,0.2-0.3,0.3C733.2,438.5,733.3,438.4,733.4,438.3z"></path>
	<path class="stblack" d="M733.4,425.4c-0.5,0.6-0.9,1.2-1.4,1.8c0.3-0.3,0.5-0.7,0.8-1C733,426,733.2,425.7,733.4,425.4z"></path>
	<path class="stblack" d="M733.1,438.6c-0.4,0.5-0.9,1-1.4,1.5C732.2,439.6,732.7,439.1,733.1,438.6z"></path>
	<path class="stblack" d="M728,432c0,0.1-0.1,0.1-0.1,0.2C727.9,432.1,727.9,432.1,728,432C728,432.1,728,432,728,432z"></path>
	<path class="stblack" d="M752.5,412.7c-0.6,0.9-1.2,1.9-1.9,3c1.1-1.7,2.2-3.4,3.2-5.1c-0.4,0.6-0.7,1.2-1.1,1.7
		C752.6,412.4,752.6,412.5,752.5,412.7z"></path>
	<path class="stblack" d="M730,442.1c0,0,0.1-0.1,0.1-0.1c0.1-0.1,0.2-0.2,0.3-0.3c-0.1,0.1-0.1,0.2-0.2,0.2C730.1,442,730.1,442,730,442.1z"></path>
	<path class="stblack" d="M733.6,438.1c0.5-0.6,1-1.2,1.4-1.6c-0.4,0.5-0.9,1.1-1.6,1.9C733.5,438.2,733.6,438.1,733.6,438.1z"></path>
	<path class="stblack" d="M715.7,456.5c-0.1,0.1-0.2,0.2-0.2,0.2c-0.2,0.1-0.3,0.3-0.4,0.4c-0.2,0.2-0.4,0.4-0.6,0.6c1-0.9,2.8-2.5,4.8-4.4
		c-0.7,0.6-1.3,1.2-2,1.9C716.7,455.5,716.2,456,715.7,456.5z"></path>
	<path class="stblack" d="M239.6,580.2C239.6,580.2,239.6,580.2,239.6,580.2C239.6,580.2,239.7,580.2,239.6,580.2
		C239.7,580.2,239.7,580.2,239.6,580.2C239.6,580.2,239.6,580.2,239.6,580.2z"></path>
	<path class="stblack" d="M237.7,571.9c-0.6-0.1-1.1-0.2-1.6-0.3c0.2,0,0.3,0.1,0.5,0.1C236.9,571.7,237.3,571.8,237.7,571.9z"></path>
	<path class="stblack" d="M299.9,577.5c-9.1-0.4-22.8,0-40.1-2.1c-5-0.7-8.5-1.2-11-1.5c-0.8-0.1-1.8-0.3-3.3-0.5c-3.6-0.7-6.1-1.2-7.6-1.5
		c0.2,0,0.3,0.1,0.5,0.1c-0.4-0.1-1-0.2-1.6-0.3c-1.8-0.4-1.5-0.3-0.5-0.1c-0.7-0.1-1.4-0.3-2.3-0.5c-2.8-0.7-6.7-1.6-11.8-3.4
		c-0.6-0.2-1.3-0.4-2.1-0.8c-0.8-0.4-1.7-0.8-2.6-1.3c-1-0.5-2-1-3.1-1.6c-1.1-0.6-2.2-1.3-3.4-2.1c-4.7-2.9-9.6-6.8-14.1-10.9
		c-4.5-4-8.8-8-12.3-10.3c-3.5-2.3-6.2-2.9-7.3-0.5c-1.5,3.2-0.2,7.3,2.8,11.6c3,4.3,7.9,8.9,13.6,12.9c5.6,4,12.3,6.7,17.7,8.4
		c2.7,0.7,5.1,1.5,7,1.9c1.9,0.4,3.4,0.7,4.2,1c6.9,2.2,12.4,3.3,16.1,4c0.4,0.1,0.8,0.2,1.2,0.2c0,0,0,0,0,0c0,0,0,0,0.1,0
		c0.7,0.1,1.2,0.2,1.7,0.3c1.7,0.3,4.8,0.9,10,1.6c17,2.4,32,4.9,43,5.9c11,0.8,18-0.1,18.8-5.9C313.7,578.7,309,577.8,299.9,577.5z
		 M239.4,572.2C239.4,572.2,239.4,572.2,239.4,572.2C240.5,572.4,241,572.6,239.4,572.2z M245.2,573.4c1.1,0.2,2.4,0.4,3.4,0.5
		C241.7,572.9,242.8,572.9,245.2,573.4z"></path>
	<path class="stblack" d="M241.4,580.5c-0.7-0.1-1.3-0.3-1.7-0.3C240,580.2,240.5,580.4,241.4,580.5z"></path>
	<path class="stblack" d="M242.2,580.7c1,0.2,1.9,0.3,1.9,0.3s-0.5-0.1-1.4-0.2c-0.3-0.1-0.8-0.2-1.2-0.2c0,0,0,0,0,0
		C241.6,580.6,241.9,580.6,242.2,580.7z"></path>
	<path class="stblack" d="M383.6,633.6c-0.2,0-0.3,0-0.5,0C383.6,633.6,383.8,633.6,383.6,633.6z"></path>
	<path class="stblack" d="M388.5,633.1c-0.1,0,0.5,0,1.4-0.2c-0.1,0-0.3,0-0.4,0C389.2,633.1,388.9,633.1,388.5,633.1z"></path>
	<path class="stblack" d="M376.3,633.9c0.2,0,0.4,0,0.5,0c-0.3,0-0.6,0-0.9,0C376,633.9,376.1,633.9,376.3,633.9z"></path>
	<path class="stblack" d="M386.8,626.7C386.8,626.7,386.9,626.7,386.8,626.7C386.9,626.7,386.8,626.7,386.8,626.7z"></path>
	<path class="stblack" d="M382.3,633.7c0,0,0.1,0,0.1,0c0.2,0,0.5,0,0.7,0c-0.1,0-0.3,0-0.4,0c0.5,0,0.8-0.1,1-0.1c1.9-0.1,3.5-0.3,4.9-0.5
		c0.1,0,0.4-0.1,1-0.1c1.4-0.2,2.5-0.4,3.4-0.5c0.1,0,0.1,0,0.2,0c0.8-0.1,1.7-0.3,2.7-0.5c-0.6,0.1-1.3,0.3-2.2,0.4
		c1-0.2,1.8-0.3,2.3-0.4c1-0.2,2.1-0.4,3.3-0.7c4.5-1.1,10.8-2.8,18.9-6.1c3.6-1.5,10.8-4.3,18.8-9.4c4-2.5,8-5.7,11.7-9.6
		c3.7-3.8,7-8.4,9.4-13.2c2.4-4.8,3.9-9.9,4.5-14.6c0.7-4.7,0.4-9.1-0.4-12.6c-0.9-3.5-2.1-6-3.3-7.3c-1.2-1.3-2.1-1.5-2.9-0.5
		c-0.5,0.7-0.9,1.6-1.1,2.6c-0.3,1-0.5,2.2-0.6,3.4c-0.4,2.5-0.6,5.6-1.2,8.9c-1.1,6.7-3.8,15-8.8,22.3c-4.9,7.3-12,13.5-18.5,17.7
		c-6.4,4.3-12,6.9-14.3,7.7c-9.8,3.6-17.8,5.2-23.1,5.9c-0.5,0.1-1,0.1-1.5,0.2c0.1,0,0,0-0.4,0c0.1,0,0.1,0,0.2,0
		c0.1,0,0.1,0,0.2,0c-0.3,0-0.6,0.1-0.9,0.1c-0.3,0-0.7,0.1-1.2,0.1c0.3,0,0.5,0,0.7-0.1c-0.2,0-0.4,0.1-0.6,0.1c-0.2,0-0.4,0-0.6,0
		c0,0,0,0,0.1,0c-2.5,0.1-7.1,0.7-14.7-0.1c-6.1-0.6-11.9-2.3-17-4.8c-2.5-1.3-5-2.7-7-4.3c-1-0.8-2.1-1.6-3-2.5
		c-0.9-0.9-1.9-1.8-2.6-2.8c-3.2-3.9-5.6-8.1-7.1-12.3c-1.5-4.2-2.2-8.3-2.5-12c0-0.9,0-1.8-0.1-2.7c0-0.9,0.1-1.7,0.1-2.5
		c0-1.7,0.4-3.2,0.6-4.6c0.3-1.4,0.7-2.7,1-3.9c0.4-1.2,0.8-2.3,1.1-3.3c0.4-1,0.8-1.9,1-2.8c0.2-0.9,0.6-1.6,0.7-2.4
		c0.3-1.5,0.2-2.8-0.5-3.9c-0.4-0.6-1.1-0.8-2-0.5c-0.5,0.2-1,0.5-1.7,0.9c-0.6,0.4-1.4,0.9-2,1.7c-2.8,2.8-6.2,8.5-7.1,16.4
		c-0.4,3.9-0.3,8.4,0.6,13.1c1,4.7,2.7,9.6,5.4,14.5c2.7,4.9,6.5,9.7,11.6,13.8c1.3,0.9,2.7,2,4.1,2.9c1.4,0.8,2.8,1.7,4.4,2.4
		c1.5,0.7,3,1.5,4.7,2.1c0.8,0.3,1.6,0.6,2.4,0.9c0.8,0.3,1.7,0.5,2.5,0.8c7.4,2.2,13,2.6,17.1,2.8c-0.5,0-1,0-1.3,0
		c-0.6,0-0.6,0,0.5,0c0.4,0,1,0,1.8,0.1c0.2,0,0.4,0,0.6,0c-0.1,0-0.3,0-0.4,0c0.4,0,0.9,0,1.4,0c0,0-0.1,0-0.1,0c0.2,0,0.5,0,0.7,0
		c0.8,0,1.6,0,2.6,0C381,633.8,381.7,633.8,382.3,633.7z M396,631.9c0.5-0.1,0.7-0.2,0.8-0.2C396.9,631.7,396.5,631.8,396,631.9z
		 M380.6,633.8c0,0-0.1,0-0.1,0c0.6,0,1.1-0.1,1.6-0.1C381.7,633.8,381.2,633.8,380.6,633.8z M381.2,627.2c0.3,0,0.5,0,0.8-0.1
		C381.7,627.2,381.5,627.2,381.2,627.2z M378.7,633.8c0.2,0,0.4,0,0.6,0c0.1,0,0.1,0,0.1,0C379.2,633.8,378.9,633.8,378.7,633.8z"></path>
	<path class="stblack" d="M384.7,627c-0.1,0-0.2,0-0.4,0c0,0,0.1,0,0.1,0C384.6,627,384.6,627,384.7,627z"></path>
	<path class="stblack" d="M391.8,632.7c0.6-0.1,1.2-0.2,1.8-0.3c-0.2,0-0.3,0.1-0.5,0.1C392.7,632.5,392.2,632.6,391.8,632.7z"></path>
	<path class="stblack" d="M390,633c0.1,0,0.2,0,0.2,0c0.4-0.1,1-0.2,1.6-0.3c-0.2,0-0.3,0-0.5,0.1C390.9,632.8,390.4,632.9,390,633z"></path>
	<path class="stblack" d="M428.4,678.8c0.2-0.1,0.3-0.1,0.5-0.2C428.7,678.7,428.6,678.8,428.4,678.8z"></path>
	<path class="stblack" d="M436.2,682.7c0,0,0.2-0.1,0.6-0.3c-0.1,0.1-0.3,0.1-0.4,0.2c0,0,0,0,0,0c0.5-0.2,0.9-0.4,1.3-0.7c-0.2,0.1-0.4,0.2-0.6,0.3
		c0.2-0.1,0.4-0.2,0.6-0.3c0.1-0.1,0.2-0.1,0.3-0.2c0.3-0.1,0.6-0.3,0.9-0.5c-0.1,0.1-0.2,0.1-0.4,0.2c0.2-0.1,0.4-0.2,0.5-0.3
		c0.3-0.2,0.6-0.4,1-0.6c0.6-0.4,0.9-0.5,0.9-0.5s-0.2,0.1-0.5,0.3c0.4-0.2,0.8-0.5,1.2-0.8c1.6-1.1,3.7-2.6,6-5.1
		c1.7-2,3.2-4.4,3.9-7.1c0.7-2.7,0.7-5.4,0.3-7.9c-0.5-2.6-1.5-5-2.9-7.1c-1.4-2.1-3.4-3.9-5.5-5.2c-4.3-2.5-8.9-3-12.7-3.2
		c-3.9-0.1-7.1,0-10.1,0.1c-9.5,0.4-16.2,1.4-18.8,4.1c-0.6-0.1-1.2-0.2-1.9-0.1c-2.6,0.2-5.5,1.7-7.9,3.9c-2.5,2.3-4.5,5.1-6.4,8.1
		c-1,1.6-2,3.6-2.6,6.1c-0.6,2.6-0.5,5.7,0.5,8.3c1,2.6,2.6,4.7,4.4,6.2c1.7,1.6,3.6,2.7,5.4,3.6c1.8,0.9,3.7,1.6,5.5,2
		c1.7,0.5,3.4,0.7,5,1c6.4,0.8,11.2,0.2,13.1,0.1c8.3-0.4,14.4-2.5,18.4-4.3C435.5,683,435.9,682.9,436.2,682.7z M436.4,675.2
		c0.1,0,0.1-0.1,0.2-0.1C436.5,675.1,436.4,675.1,436.4,675.2C436.4,675.2,436.4,675.2,436.4,675.2z M441.1,671.8
		C441.2,671.7,441.3,671.7,441.1,671.8L441.1,671.8z M430.2,678.2c-0.2,0.1-0.4,0.2-0.6,0.2c-0.1,0-0.2,0.1-0.3,0.1
		c0.1,0,0.2-0.1,0.3-0.1c-0.5,0.2-0.9,0.3-1.2,0.4c-0.1,0-0.1,0-0.2,0c0,0,0.1,0,0.1,0c-0.2,0.1-0.3,0.1-0.4,0.1
		c-0.5,0.2-1,0.3-1.7,0.5c-2.9,0.8-7.1,1.7-12.8,1.5c-2.5-0.1-7.6-0.8-12.8-3.2c-2.4-1.1-4.9-2.8-6.3-4.7c-0.7-0.9-1-1.8-1.1-2.5
		c-0.1-0.7,0-1.4,0.4-2.4c0.4-1,1.1-2.3,1.9-3.7c0.8-1.4,1.6-2.7,2.3-3.8c1.5-2.3,2.8-4,3.9-5.1c0.8-0.9,1.5-1.5,2-2.1
		c2.5,0.4,6.5,0.4,11.9,0c2.5-0.2,5.4-0.4,8.5-0.7c3.2-0.3,6.5-0.6,9.7-0.5c3.2,0.2,6.3,1,8.4,3.1c2.2,2.1,3.6,5.8,3,9.4
		c-0.6,3.6-3,5.9-4.8,7.5c0,0-0.1,0.1-0.1,0.1c-0.4,0.3-0.7,0.6-1.1,0.9c-0.1,0.1-0.3,0.2-0.4,0.3c-0.2,0.1-0.3,0.2-0.5,0.3
		c-0.3,0.2-0.6,0.4-1,0.7c0,0,0,0,0,0c0,0,0,0,0,0c0,0,0,0,0,0s0,0,0,0c-0.1,0.1-0.3,0.2-0.4,0.2c0.1-0.1,0.2-0.1,0.3-0.2
		c0,0,0.1,0,0.1-0.1c-1.8,1.1-3.3,1.9-4.5,2.5c0,0-0.1,0-0.3,0.1c-0.3,0.1-0.5,0.2-0.8,0.4c0.2-0.1,0.3-0.1,0.5-0.2
		c-0.1,0.1-0.2,0.1-0.3,0.2c-0.1,0-0.2,0.1-0.3,0.1c-0.1,0-0.1,0-0.2,0.1c-0.1,0.1-0.3,0.1-0.4,0.2c0.1,0,0.1-0.1,0.2-0.1
		c0,0,0.1,0,0.1,0C430.9,677.9,430.5,678.1,430.2,678.2z M439.9,672.8c-0.2,0.1-0.3,0.3-0.5,0.4C439.6,673,439.8,672.9,439.9,672.8z
		 M439.3,673.3c-0.1,0.1-0.2,0.1-0.3,0.2C439.1,673.4,439.2,673.3,439.3,673.3z M438.8,673.6c0,0-0.1,0-0.1,0.1
		C438.7,673.7,438.7,673.7,438.8,673.6z"></path>
	<path class="stblack" d="M429.3,678.5c-0.1,0-0.2,0.1-0.3,0.1C429,678.6,429.2,678.6,429.3,678.5z"></path>
	<path class="stblack" d="M431.6,677.6c0.1,0,0.1-0.1,0.2-0.1c-0.2,0.1-0.3,0.1-0.5,0.2c0,0,0.1,0,0.1-0.1C431.4,677.7,431.5,677.7,431.6,677.6z"></path>
	<path class="stblack" d="M428.3,678.9C428.3,678.9,428.3,678.9,428.3,678.9C428.4,678.9,428.4,678.9,428.3,678.9
		C428.4,678.9,428.4,678.9,428.3,678.9z"></path>
	<path class="stblack" d="M437.1,682.3c-0.1,0.1-0.2,0.1-0.3,0.2C436.9,682.4,437,682.3,437.1,682.3z"></path>
	<path class="stblack" d="M439.5,681c0.1-0.1,0.2-0.1,0.2-0.1c-0.2,0.1-0.3,0.2-0.5,0.3C439.3,681.1,439.4,681,439.5,681z"></path>
	<path class="stblack" d="M438.9,681.3c0,0,0.1-0.1,0.1-0.1c0.1,0,0.1-0.1,0.2-0.1c0,0-0.1,0.1-0.2,0.1C439,681.2,439,681.3,438.9,681.3z"></path>
	<path class="stblack" d="M439.8,680.8c0.3-0.2,0.5-0.3,0.7-0.4c-0.1,0.1-0.3,0.2-0.4,0.2C440,680.7,439.9,680.7,439.8,680.8z"></path>
	<path class="stblack" d="M437.4,674.5C437.4,674.5,437.4,674.5,437.4,674.5C437.4,674.5,437.4,674.5,437.4,674.5
		C437.4,674.5,437.4,674.5,437.4,674.5C437.4,674.6,437.4,674.5,437.4,674.5z"></path>
	<path class="stblack" d="M463.7,719.7c-0.1,0-0.1,0.1-0.2,0.1C463.6,719.8,463.6,719.8,463.7,719.7z"></path>
	<path class="stblack" d="M461.8,720.4C461.8,720.4,461.8,720.4,461.8,720.4C461.8,720.4,461.8,720.5,461.8,720.4
		C461.8,720.5,461.8,720.5,461.8,720.4z"></path>
	<path class="stblack" d="M467.1,718C467.1,718,467.1,718,467.1,718C467.1,718,467.1,718,467.1,718C467,718,467.1,718,467.1,718z"></path>
	<path class="stblack" d="M472.4,701.2c-2.9-1.8-6-2.2-8.4-2.4c-2.5-0.2-4.5-0.1-6.4-0.1c-5.8,0.1-9.9,0.9-11.5,3.5c-0.5-0.2-1-0.4-1.7-0.5
		c-1.9-0.1-4.1,0.8-5.9,2.2c-1.8,1.4-3.2,3.2-4.4,5.1c-0.6,1-1.4,2.4-1.9,4.3c-0.5,1.9-0.4,4.3,0.3,6.3c0.8,2,2,3.5,3.2,4.6
		c1.2,1.1,2.5,1.9,3.8,2.5c1.3,0.6,2.6,1,3.7,1.3c1.1,0.3,2.2,0.4,3.3,0.5c4.2,0.4,7.3-0.1,8.5-0.2c5.3-0.2,9.3-1.5,11.8-2.6
		c0.3-0.1,0.5-0.2,0.7-0.3c0,0,0.1,0,0.2-0.1c0,0-0.1,0-0.1,0.1c0,0-0.1,0-0.1,0c0.3-0.1,0.5-0.3,0.8-0.4c0.1,0,0.2-0.1,0.3-0.1
		c-0.1,0-0.1,0.1-0.2,0.1c0.1-0.1,0.2-0.1,0.3-0.1c0.2-0.1,0.3-0.2,0.5-0.3c0,0-0.1,0-0.1,0.1c0.1,0,0.1-0.1,0.2-0.1
		c0.1-0.1,0.2-0.1,0.3-0.2c-0.1,0-0.1,0.1-0.2,0.1c0.1,0,0.2-0.1,0.2-0.1c0.1-0.1,0.1-0.1,0.2-0.1c-0.1,0-0.1,0.1-0.2,0.1
		c0.1-0.1,0.2-0.1,0.4-0.2c0.4-0.2,0.5-0.3,0.5-0.3s-0.1,0.1-0.3,0.2c0.3-0.2,0.5-0.3,0.8-0.5c1-0.7,2.4-1.6,3.9-3.3
		c1.2-1.3,2.2-3,2.7-4.8c0.5-1.8,0.6-3.6,0.3-5.4C477.5,706.3,475.5,703,472.4,701.2z M466.4,718.4c0.1,0,0.1-0.1,0.2-0.1
		C466.6,718.3,466.5,718.3,466.4,718.4C466.5,718.4,466.5,718.4,466.4,718.4z M468.5,717c0.3-0.2,0.6-0.4,0.7-0.6
		C469.3,716.3,469.3,716.4,468.5,717z M471.4,713c-0.3,1.6-1.5,2.9-2.6,3.7c-0.2,0.1-0.3,0.3-0.5,0.4c-0.3,0.2-0.7,0.5-1.2,0.8
		c0.1-0.1,0.3-0.2,0.4-0.3c-0.3,0.2-0.5,0.3-0.7,0.4c0.1,0,0.1-0.1,0.2-0.1c0,0,0,0,0,0c-1,0.6-1.9,1.1-2.6,1.4c0,0,0,0-0.1,0
		c-0.2,0.1-0.4,0.2-0.6,0.3c0.1-0.1,0.2-0.1,0.3-0.1c-0.1,0-0.1,0.1-0.2,0.1c-0.1,0.1-0.3,0.1-0.5,0.2c0,0,0.1,0,0.1,0
		c0,0,0.1,0,0.1,0c-0.2,0.1-0.5,0.2-0.7,0.3c-0.1,0-0.2,0.1-0.3,0.1c-0.2,0.1-0.5,0.2-0.7,0.3c0.2-0.1,0.4-0.1,0.6-0.2
		c-0.3,0.1-0.5,0.2-0.6,0.2c0,0-0.1,0-0.1,0c0,0,0.1,0,0.1,0c-0.1,0-0.1,0-0.2,0.1c-0.3,0.1-0.6,0.2-1,0.3c-1.7,0.4-4.1,1-7.5,0.8
		c-1.5,0-4.4-0.7-7.3-2.2c-1.3-0.7-2.5-1.8-3-2.6c-0.2-0.4-0.2-0.7-0.2-0.7c0.1-0.1,0.1,0,0.2-0.4c0.3-0.7,1.7-2.9,2.4-4.1
		c0.8-1.3,1.4-2.2,1.8-2.9c0.2-0.4,0.3-0.7,0.5-1.1c1.6,0.5,4,0.5,7.2,0.3c1.6-0.1,3.3-0.3,5.3-0.5c2-0.2,4-0.4,5.7-0.4
		c1.8,0.1,3.3,0.5,4.2,1.4C471,709.4,471.7,711.4,471.4,713z M468.2,717.2c-0.1,0.1-0.2,0.2-0.3,0.2
		C468,717.4,468.1,717.3,468.2,717.2z"></path>
	<path class="stblack" d="M467.7,725.1c0.2-0.1,0.4-0.2,0.7-0.3c0,0-0.1,0-0.1,0C468.1,725,467.9,725.1,467.7,725.1z"></path>
	<path class="stblack" d="M469.8,724c0.2-0.1,0.3-0.2,0.4-0.2c-0.1,0-0.2,0.1-0.2,0.1C470,723.9,469.9,724,469.8,724z"></path>
	<path class="stblack" d="M469.2,724.3C469.3,724.3,469.3,724.3,469.2,724.3c0.1-0.1,0.1-0.1,0.2-0.1C469.4,724.3,469.3,724.3,469.2,724.3
		C469.3,724.3,469.3,724.3,469.2,724.3z"></path>
</g>
</svg>
