<?xml version="1.0" encoding="iso-8859-1"?>
<!-- Generator: Adobe Illustrator 18.1.1, SVG Export Plug-In . SVG Version: 6.00 Build 0)  -->
<svg version="1.1" id="_x34_" xmlns="http://www.w3.org/2000/svg" xmlns:xlink="http://www.w3.org/1999/xlink" x="0px" y="0px"
	 viewBox="0 0 512 512" style="enable-background:new 0 0 512 512;" xml:space="preserve">
<g>
	<path style="fill:#FFFFFF;" d="M42.624,312.206c-11.839-12.463-59.821-69.79-24.926-133.351
		c34.897-63.559,89.734-99.078,162.64-109.047c72.906-9.97,124.626-3.115,153.29,4.985c28.664,8.101,71.035,33.025,89.107,51.096
		c18.072,18.072,30.535,32.404,26.797,44.866c-3.741,12.463-9.971,22.433-9.971,22.433s24.927,3.739,47.358,35.519
		c22.434,31.779,30.532,52.343,16.201,74.776c-14.331,22.433-59.821,62.314-77.89,67.922c-18.072,5.607-49.853,11.215-56.707,26.171
		c-6.854,14.957-4.363,40.505,0,46.112c4.363,5.608,1.871,6.854-3.113,4.985c-4.987-1.869-27.418-11.216-35.519-23.056
		c-8.104-11.84-62.937-3.739-77.268-3.115c-14.334,0.623-87.239,1.246-112.166,0.623c-15.845-0.396-45.325-2.814-70.413-15.578
		c-14.375-7.314-25.948-21.586-36.141-31.781c-4.362-4.361-6.854,0.001-9.347-15.578C22.06,344.608,12.092,323.423,42.624,312.206z"
		/>
	<g>
		<path style="fill:#231510;" d="M52.966,328.381c-6.813-7.082-17.227-16.558-26.002-27.359c-4.407-5.37-8.386-11.03-11.562-16.441
			c-3.187-5.407-5.576-10.539-7.161-14.681c-1.588-4.143-3.134-8.725-4.439-13.499c-0.654-2.384-1.249-4.816-1.776-7.255
			c-0.268-1.22-0.515-2.443-0.742-3.663c-0.218-1.212-0.483-2.491-0.607-3.757c-1.166-9.846-0.686-19.135,0.38-25.44
			c0.521-3.148,1.499-9.89,3.856-18.163c2.309-8.279,6.101-18.023,11.008-27.24c4.863-9.241,10.781-17.938,16.213-24.806
			c5.42-6.887,10.292-11.992,12.802-14.522c2.513-2.532,6.065-5.992,10.218-9.678c4.147-3.691,8.905-7.591,13.677-11.154
			c4.766-3.572,9.544-6.8,13.58-9.353c4.036-2.555,7.32-4.455,9.031-5.496c3.435-2.077,4.118-2.526,5.715-3.367
			c0.798-0.414,1.832-0.916,3.591-1.704c0.878-0.393,1.938-0.856,3.246-1.4c1.337-0.567,2.822-1.108,4.566-1.899
			c7.299-3.14,11.824-4.619,15.026-5.642c3.208-1.002,5.119-1.499,7.376-2.245c2.253-0.745,7.122-2.424,11.476-3.781
			c4.348-1.373,8.165-2.461,8.162-2.462c0,0,7.441-2.366,15.683-4.349c8.23-2.028,17.241-3.623,19.919-3.623
			c6.345-0.022,9.073-0.429,11.22-1.009c2.144-0.567,3.7-1.284,7.653-1.617c3.953-0.327,7.517-0.3,12.06-0.327
			c4.548-0.018,10.071-0.107,17.995-0.412c7.924-0.302,17.041-0.19,25.945,0.275c8.905,0.449,17.595,1.249,24.717,1.949
			c7.128,0.701,12.613,1.644,17.665,2.673c5.052,1.038,9.671,2.165,15.073,3.468c5.396,1.339,2.698,0.672,1.352,0.333
			c-0.672-0.166-1.01-0.249,0.171,0.043c1.178,0.3,3.882,0.943,9.232,2.451c5.344,1.517,9.176,2.943,11.783,4.085
			c2.654,1.158,4.094,2.074,4.689,2.691c1.184,1.244-0.993,1.298-4.068,0.538c-3.075-0.745-7.918-2.326-13.011-3.765
			c-5.09-1.458-10.422-2.786-14.316-3.399l-16.098-2.573l-19.524-3.002c-12.363-1.96-18.67-2.267-24.985-2.052
			c-3.161,0.122-8.678,0.331-14.369,0.63c-5.691,0.289-11.553,0.676-15.456,0.807c-7.8,0.262-13.795,0.811-18.708,1.096
			c-10.899,0.66-18.284,1.432-23.713,2.111c-5.426,0.695-8.899,1.333-11.945,2.184c-3.034,0.862-3.797,1.026-5.523,1.378
			c-1.718,0.371-4.413,0.89-11.197,2.827c-6.778,1.966-11.588,3.654-15.822,5.166l-12.28,4.467
			c-4.392,1.59-7.606,3.019-10.437,4.334l-4.062,1.928c-1.346,0.674-2.76,1.22-4.162,1.814c-5.715,2.377-11.061,5.6-16.449,8.602
			c-2.704,1.492-6.978,4.159-11.223,7.207c-4.256,3.035-8.469,6.454-11.347,9.04c-2.898,2.567-9.073,7.777-14.74,13.25
			c-5.709,5.427-10.896,11.091-13.076,13.26c-2.189,2.159-3.853,3.777-5.794,6.18c-1.924,2.41-4.165,5.598-7.078,11.08
			c-2.872,5.498-3.779,8.074-4.657,10.214c-0.845,2.158-1.65,3.887-3.597,8c-1.92,4.123-3.279,6.825-4.475,9.202
			c-1.184,2.383-2.189,4.448-3.081,7.364c-0.89,2.913-2.206,7.297-3.049,11.799c-0.869,4.492-1.261,9.083-0.925,12.174l0.972,9.501
			l0.557,5.361l0.339,2.959c0.127,1.033,0.224,1.952,0.433,3.018c0.784,4.383,1.461,7.741,2.053,10.482
			c0.607,2.75,1.152,4.943,1.882,7.083c0.727,2.145,2.18,4.847,3.83,7.612c1.655,2.769,3.505,5.594,4.934,8.189
			c1.42,2.61,3.882,5.928,6.716,9.385c2.831,3.463,6.033,7.057,8.781,10.569l9.191,11.691c3.175,4.059,6.265,8.07,8.395,11.519
			c2.112,3.455,4.218,8.286,4.569,11.003C59.603,332.947,58.039,333.603,52.966,328.381z"/>
		<path style="fill:#231510;" d="M367.514,91.8c4.295,2.049,7.57,3.407,11.032,4.838c3.452,1.437,7.096,2.944,11.998,5.502
			c4.896,2.57,7.992,5.022,11.297,7.791c3.296,2.79,6.828,5.862,12.351,10.183l12.755,10.074c2.945,2.336,4.569,3.561,4.575,3.554
			c-2.975-4.337-6.301-8.491-9.839-12.475c-0.003,0.001-1.717-1.667-4.324-3.828c-2.607-2.167-6.121-4.8-9.552-6.858
			c-3.429-2.059-6.154-4.357-9.488-6.862c-3.334-2.495-7.285-5.201-13.141-7.81c-11.741-5.158-19.424-7.452-26.414-11.101
			c-3.514-1.807-5.653-1.906-4.699-0.704C355.01,85.334,359.031,87.786,367.514,91.8z"/>
		<path style="fill:#231510;" d="M436.246,134.097c2.194,3.445,2.333,5.313,2.695,7.202c0.324,1.921,0.934,3.825,3.211,7.911
			c2.256,4.097,4.292,9.224,5.155,14.214c0.928,4.988,0.621,9.713,0.206,12.845c-0.191,1.57-0.683,3.912-1.6,6.439
			c-0.901,2.529-2.236,5.223-3.708,7.594c-2.937,4.766-6.304,8.218-6.277,8.227c0.003-0.003,0.182,0.806,1.582,0.234
			c0.698-0.292,1.709-0.932,3.087-2.287c1.361-1.363,3.137-3.432,4.99-6.749c1.838-3.324,2.757-5.838,3.364-7.732
			c0.598-1.903,0.869-3.211,1.078-4.364c0.2-1.155,0.324-2.161,0.427-3.51c0.094-1.349,0.177-3.052,0.012-5.57
			c-0.318-5.042-1.508-10.304-2.825-14.21c-1.296-3.915-2.516-6.534-2.495-6.541C442.694,142.881,439.625,138.336,436.246,134.097z"
			/>
		<path style="fill:#231510;" d="M444.379,193.488c5.061,2.261,11.255,4.884,17.757,8.236c6.495,3.348,13.297,7.448,19.421,12.395
			c6.147,4.909,11.544,10.677,15.624,16.488c4.098,5.804,6.902,11.577,8.649,16.24c1.758,4.667,3.302,9.874,4.43,15.288
			c0.286,1.352,0.542,2.719,0.778,4.091c0.242,1.386,0.462,2.821,0.577,4.257c0.256,2.792,0.386,5.589,0.386,8.354
			c0.003,5.529-0.58,10.911-1.658,15.694c-1.057,4.79-2.586,8.962-4.13,12.219c-1.52,3.246-4.902,10.213-11.02,17.681
			c-3.031,3.741-6.684,7.607-10.772,11.35c-4.086,3.752-8.59,7.395-13.238,10.834c-2.312,1.736-4.707,3.38-6.99,5.024
			c-2.336,1.676-4.701,3.276-7.058,4.776c-4.713,3.003-9.394,5.619-13.745,7.818c-8.704,4.398-16.018,7.202-19.718,8.593
			c-3.703,1.384-8.872,3.228-14.678,5.189l-18.428,6.181c-0.754,0.256-1.476,0.49-2.133,0.794c-0.722,0.308-1.429,0.629-2.124,0.957
			c-1.39,0.66-2.725,1.362-3.989,2.1c-2.524,1.471-4.757,3.089-6.604,4.719c-3.724,3.258-5.818,6.541-6.737,8.319
			c-0.925,1.788-1.32,2.93-1.623,3.802c-0.295,0.876-0.477,1.496-0.739,2.349c-0.247,0.857-0.592,1.941-0.984,3.817
			c-0.371,1.874-0.819,4.556-0.734,8.627c0.106,4.071,0.669,7.348,1.208,10.014c0.292,1.383,0.495,2.323,0.966,4.022
			c0.415,1.485,0.834,2.787,1.24,3.965c0.819,2.352,1.611,4.232,2.286,5.9c0.692,1.672,1.331,3.149,2.103,4.778l0.197,0.42
			c-0.08,0.199-0.153,0.426-0.203,0.679c-0.015,0.127-0.041,0.258-0.05,0.398c-0.041,0.118,0.115,0.365-0.312,0.247
			c-1.211-0.146-2.542-0.318-3.941-0.52c-2.801-0.412-5.85-0.885-8.831-1.649c-2.969-0.742-5.797-1.768-7.815-2.672l-1.19-0.546
			l-0.816-0.396l-0.695-0.35c0.012-0.009-2.089-0.962-5.034-2.872c-2.963-1.875-6.595-4.866-10.13-7.682
			c-1.779-1.399-3.573-2.714-5.355-3.806c-1.779-1.099-3.55-1.971-5.22-2.638c-3.331-1.337-6.239-1.878-7.532-2.285
			c-3.084-0.931-5.485-1.203-7.323-1.281c-1.85-0.065-3.17,0.09-4.327,0.302c-1.131,0.215-2.203,0.501-3.502,0.737
			c-1.296,0.237-2.846,0.434-5.052,0.499c-8.825,0.211-15.777-0.803-33.313-0.651c-17.538,0.132-40.197-0.826-55.882-0.535
			c-7.839,0.134-13.904,0.115-19.521,0.11c-2.807,0-5.505,0.006-8.254,0.053c-2.745,0.035-5.523,0.16-8.628,0.284
			c-6.145,0.236-3.075,0.116-1.54,0.062c0.766-0.03,1.152-0.043-0.195,0.007c-1.343,0.047-4.41,0.183-10.569,0.289
			c-12.331,0.168-18.019-0.901-19.68-1.71c-1.667-0.846,0.619-1.536,4.136-1.697c3.517-0.16,9.182-0.075,15.07-0.167
			c5.885-0.084,11.992-0.318,16.351-0.803c4.365-0.493,10.931-0.953,18.145-1.1c7.214-0.156,15.073-0.022,22.025,0.424
			c13.909,0.916,20.879,1.192,27.91,0.863c7.037-0.303,24.57-0.869,33.268-0.805c8.701,0.099,15.4-0.1,20.876-0.137
			c3.049-0.014,5.794-0.091,8.427-0.137c2.622-0.025,5.031,0.084,7.235,0.296c4.41,0.424,7.997,1.289,10.917,2.333
			c2.925,1.043,5.187,2.237,7.087,3.361c1.9,1.131,3.452,2.197,4.928,3.192c2.925,2.013,3.552,2.635,5.037,3.916
			c0.742,0.642,1.676,1.475,3.214,2.712c1.546,1.218,3.676,2.897,7.037,4.768c1.143,0.631,2.271,1.183,3.343,1.653
			c0.954,0.415,1.876,0.764,2.751,1.063c1.758,0.595,3.349,0.99,4.807,1.28c1.461,0.289,2.789,0.473,4.044,0.607
			c0.627,0.066,1.237,0.121,1.835,0.165l0.071-0.019l-0.059-0.115l-0.124-0.227l-0.236-0.452l-0.454-0.891
			c-1.105-2.219-2.009-4.326-2.795-6.74c-0.306-0.944-0.583-1.853-0.825-2.695c-0.324-1.149-0.61-2.237-0.863-3.279
			c-0.504-2.082-0.878-3.974-1.155-5.775c-0.539-3.598-0.745-6.844-0.368-10.521c0.386-3.669,1.14-7.357,2.483-10.883
			c1.334-3.523,3.273-6.859,5.741-9.698c1.228-1.42,2.937-3.208,5.055-4.993c2.115-1.792,4.631-3.577,7.32-5.154
			c1.343-0.792,2.728-1.533,4.115-2.219c0.692-0.345,1.387-0.67,2.079-0.987c0.365-0.16,0.772-0.356,1.128-0.489l1.075-0.4
			l7.161-2.72c4.089-1.607,12.784-4.455,21.118-7.395c8.354-2.904,16.272-6.13,19.474-7.329c3.211-1.174,5.632-2.056,8.705-3.588
			c3.055-1.552,6.804-3.723,12.257-7.941c1.358-1.059,2.504-1.997,3.488-2.834l2.636-2.247c1.485-1.276,2.522-2.233,3.491-3.099
			c1.917-1.747,3.585-3.097,7.544-6.282c3.939-3.203,6.572-5.273,8.875-7.109c2.283-1.85,4.233-3.472,6.421-6.02
			c2.186-2.538,5.373-6.438,7.889-10.768c2.545-4.308,4.339-9.026,4.831-12.36c0.504-3.333,0.878-6.607,1.161-10.27
			c0.274-3.664,0.451-7.719,0.312-12.63c-0.035-1.228-0.091-2.381-0.15-3.47l-0.203-2.988c-0.203-1.785-0.436-3.514-0.684-5.047
			c-0.477-3.069-0.963-5.51-1.67-7.893c-0.716-2.385-2.171-5.422-3.944-8.453c-1.755-3.044-3.814-6.067-5.508-8.779
			c-1.676-2.738-4.586-6.126-8.077-9.412c-3.476-3.312-7.535-6.492-11.273-9.501c-3.717-3.034-8.322-6.377-12.996-9.502
			c-4.669-3.131-9.385-6.061-12.976-8.677c-3.561-2.636-7.815-6.469-9.394-8.906c-0.781-1.223-0.866-2.111,0.209-2.315
			C438.387,191.365,440.632,191.829,444.379,193.488z"/>
		<path style="fill:#231510;" d="M111.04,417.422l-13.164-2.409c-4.077-0.795-8.383-1.686-14.225-3.67
			c-5.832-2.017-9.626-4.283-13.632-6.903c-2-1.32-4.056-2.747-6.418-4.374l-3.824-2.623c-1.402-0.909-2.851-1.881-4.43-3.009
			c-6.274-4.526-10.816-8.606-13.945-11.367l-4.784-4.299c3.064,4.974,6.593,9.733,10.617,14.175
			c0.006-0.007,1.914,1.895,4.978,4.236c1.517,1.158,3.399,2.461,5.343,3.588c1.853,1.14,3.927,2.318,5.921,3.305
			c4.009,1.982,7.338,4.175,11.429,6.458c4.089,2.256,8.969,4.623,15.989,6.335c7.017,1.686,12.811,2.477,17.889,3.14
			c5.084,0.651,9.467,1.158,13.795,1.949c4.342,0.782,6.645,0.247,5.229-0.629c-0.707-0.448-2.333-0.99-5.067-1.613
			C120.007,419.082,116.166,418.374,111.04,417.422z"/>
		<path style="fill:#231510;" d="M31.689,377.785c-2.215-3.962-2.289-5.983-2.61-8.061c-0.15-1.044-0.342-2.113-0.789-3.501
			c-0.445-1.392-1.155-3.09-2.209-5.473c-2.115-4.751-3.924-10.638-4.218-16.267c-0.168-2.806,0.036-5.517,0.501-7.911
			c0.468-2.396,1.187-4.466,1.865-6.09c0.663-1.629,1.95-3.984,3.891-6.271c1.921-2.305,4.475-4.5,7.061-6.226
			c5.19-3.479,10.289-5.208,10.26-5.24c-0.006,0.001,0.239-0.82-1.414-0.873c-0.828-0.013-2.142,0.153-4.171,0.875
			c-2.018,0.735-4.81,1.971-8.227,4.553c-3.396,2.608-5.393,4.932-6.754,6.742c-1.349,1.829-2.08,3.174-2.669,4.373
			c-0.574,1.205-1.019,2.276-1.482,3.744c-0.454,1.467-0.963,3.343-1.252,6.176c-0.586,5.679,0.224,11.666,1.311,16.104
			c1.072,4.451,2.212,7.438,2.189,7.447C25.244,367.535,28.252,372.822,31.689,377.785z"/>
	</g>
</g>
</svg>
